<?xml version="1.0" encoding="utf-8"?>
<svg xmlns="http://www.w3.org/2000/svg" viewBox="0 0 24 24" width="128" height="128">
  <rect width="24" height="24" rx="5" fill="#010101"/>
  <path fill="#69C9D0"
    d="M16.6 5.82s.51.5 0 0A4.278 4.278 0 015.9 5.82v8.19a3.75 3.75 0 003.75 3.75 3.75 3.75 0 003.75-3.75V8.28a5.63 5.63 0 005.19 3.48v-3a5.63 5.63 0 01-2-.94z"/>
  <path fill="#EE1D52"
    d="M16.6 5.82a4.28 4.28 0 003.4 3.94V5.82h-3.4z"/>
  <path fill="#ffffff"
    d="M13.4 5.82v8.19a3.75 3.75 0 01-3.75 3.75A3.75 3.75 0 016 13.91v3a6.35 6.35 0 003.65 1.15 6.35 6.35 0 006.35-6.35V5.82h-2.6z"/>
</svg>
